# xmcd CD database file
#
# Track frame offsets:
#	151
#	10800
#	23245
#	37098
#	50047
#	62822
#	74545
#	86356
#	97675
#	109042
#	120885
#	130548
#	140319
#	149560
#	162393
#	173626
#	184195
#	195258
#	205715
#	217568
#	229493
#	241348
#	253717
#	264554
#	276111
#
# Disc length: 3842 seconds
#
# Revision: 0
# Processed by: cddbd v1.5.2PL0 Copyright (c) Steve Scherf et al.
# Submitted via: CDex 1.70beta2
#
DISCID=590f0019
DTITLE=Various Artist - Post War Country Disk 2
DYEAR=2005
DGENRE=Country
TTITLE0=Bill Haley - Rocket 88
TTITLE1=Hank Snow - I'm Movin' On
TTITLE2=Bill Monroe - Blue Moon of Kentucky
TTITLE3=Merle Travis - So Round, So Firm, So Fully Packed
TTITLE4=Johnny Bond - Mean Momma Boogie
TTITLE5=Marty Robins - I'll Go on Alone
TTITLE6=Roy Rodgers - Home on the Range
TTITLE7=Jimmy Wakeley - Oklahoma Blues
TTITLE8=Ernest Tub - Walkin' the Floor Over You
TTITLE9=Floyd Tillman - Drivin' Nails in My Coffin
TTITLE10=Spade Cooley - Rhumba Boogie
TTITLE11=Hank Williams - Honky Tonk Blues
TTITLE12=Maddoxs Brothers - Water Baby Boogie
TTITLE13=Tex Williams - Smoke, Smoke, Smoke that Cigerette
TTITLE14=Pee Wee King - Ten Gallon Boogie 
TTITLE15=Jack Gutherie - Okie Boogie
TTITLE16=Tennesse Ernie Ford - Black Berry Boogie
TTITLE17=Eddy Arnold - Cattle Call
TTITLE18=Flatt Scrugs - Don't Get Above Your Raisin'
TTITLE19=Al Dextor - Saturday Night Boogie
TTITLE20=Red Foley - Tennesse Saturday Night
TTITLE21=Del Moore Brothers - Barnyard Boogie
TTITLE22=Hank Thomson - Humpy Dumpty Heart
TTITLE23=Matox Brothers - Mean and Wicked Boogie
TTITLE24=Hank Williams - I Am So Lonesome I Could Cry
EXTD=YEAR: 2005
EXTT0=
EXTT1=
EXTT2=
EXTT3=
EXTT4=
EXTT5=
EXTT6=
EXTT7=
EXTT8=
EXTT9=
EXTT10=
EXTT11=
EXTT12=
EXTT13=
EXTT14=
EXTT15=
EXTT16=
EXTT17=
EXTT18=
EXTT19=
EXTT20=
EXTT21=
EXTT22=
EXTT23=
EXTT24=
PLAYORDER=
